<svg id="Layer_1" data-name="Layer 1" xmlns="http://www.w3.org/2000/svg" viewBox="0 0 2729.65 594.72"><path d="M-466.63,697l-.82.18v6.35H-300L-144.46,338,11.05,703.5H191.53v-6.35l-.81-.18c-30.57-6.9-46.09-17.19-46.09-54.3V208.22c0-37.11,15.58-47.4,46.15-54.3l.81-.18v-6.37H69.14v6.35l.81.18c30.57,6.9,46.09,17.19,46.09,54.3V617.47L-83.73,147.37H-95.06L-300.65,630.58V197.47c2.62-29.31,18-38.36,45.68-44.61l.82-.19v-6.3h-213.3v6.3l.82.19c27.71,6.25,43.46,15.3,46.08,44.61l.14,445.2h-.14c0,37.11-15.52,47.4-46.08,54.3M288.2,440.7c3.49-78.06,31.52-134.4,78.56-135.37,14.51.24,26.68,5,36.14,14.16C423,339,432.45,379.77,431,440.7Zm-2.11,22h250v-1.05c-.71-59.69-18-106.12-51.34-138-28.82-27.55-71.49-42.71-116.31-42.71h-1c-23.26,0-51.79,5.64-72.09,15.86-23.11,10.7-43.49,26.7-60.45,47.7-27.3,33.83-43.84,79.55-47.86,130.93-.13,1.54-.24,3.08-.35,4.62s-.18,2.92-.25,4.39q-.54,10.83-.36,21.69C188.79,622.5,251.65,715.5,363.3,715.5c98,0,155.07-71.64,169.3-167.8l-7.19-2.53c-25,51.68-69.9,83-121,79.18-69.76-5.22-123.2-76-118.35-161.63m438.6-128.86c8.1-18.67,25.08-29.37,46.65-29.37,51.51,0,84.79,69.21,84.79,176.21,0,51.41-8.42,94.81-24.42,125.51-14.89,28.6-35.85,44.34-58.78,44.34s-40-10.7-48.24-30.15ZM558,696.84v6.66H724.66V639.2c19.09,47.9,60.79,76.3,112.62,76.3,88.6,0,148.13-81.28,148.12-202.21,0-67.71-19.47-126.09-56.3-168.81-35.33-41-84.32-63.56-137.92-63.56-26.43,0-48.21,5.69-66.52,17.38V227.16c0-15.76,3.85-27,11.75-34.26,10.09-9.32,27.47-12.86,53.09-10.79l1.14.09v-6.7L604.91,120.78v518.9c0,39-15.52,49.77-46.09,57Zm585.87-505.49c0-37.76-28.47-66.24-66.24-66.24-37.59,0-67,29.1-67,66.24s29.44,66.24,67,66.24c37.77,0,66.24-28.48,66.24-66.24m43.84,505.33c-30.57-7.23-46.09-18-46.09-57h-.13V282.15L974.84,330v6.5l1,.09c36.06,3.21,45.93,15.63,45.93,57.77V703.5h166.8v-6.66Zm427.05,0c-30.57-7.23-46.09-18-46.09-57V282.15L1410,328.42v6.52l.94.1c29.48,3.1,38,16.23,38,58.56v226c-9.83,19.45-28.27,31-50.61,31.78-36.23,0-56.18-24.47-56.18-68.9V282.16L1175.49,330v6.49l1,.09c36.06,3.2,45.94,15.62,45.94,57.77V585.63a214.44,214.44,0,0,0,3.47,39.82l3,13c14.11,50.56,51.08,77,109,77,49.06,0,92.06-30.37,111-77.89v66h166.66V697Zm647.43,6.82v-6.67l-.81-.19c-33.17-7.65-46.09-22.07-46.09-51.43V402c0-75.83-42.59-121.09-113.93-121.09-52,0-95.85,30.05-112.73,76.86-13.41-49.6-52-76.86-109.06-76.86-50.12,0-89.4,26.45-106.25,71.13V282.18l-166.66,45.89v6.54l1,.09c35.63,3.16,45.93,15.94,45.93,57V703.5h155.5v-6.66l-.82-.2c-26.46-6.22-35-17.56-35-46.66V371.22c7-16.35,21.11-35.72,49-35.72,34.64,0,52.2,24,52.2,71.28V703.5H2030v-6.66l-.82-.2c-26.46-6.22-35-17.56-35-46.66V402a160.48,160.48,0,0,0-2.2-27.68c7.42-17.77,22.34-38.8,51.37-38.8,35.13,0,52.2,23.31,52.2,71.28V703.5Z" transform="translate(467.45 -120.78)"/></svg>