<svg id="Layer_1" data-name="Layer 1" xmlns="http://www.w3.org/2000/svg" viewBox="0 0 1044.2 593.03"><path d="M-1211,423.71c0-163.76,131.85-296.52,294.5-296.52S-622,259.91-622,423.71-753.85,720.22-916.49,720.22-1211,587.47-1211,423.71m-323.07,0c0-154.16,65.93-279.12,147.25-279.12s147.25,125,147.25,279.12-65.93,279.12-147.25,279.12-147.25-125-147.25-279.12m-132.14,0c0-138.12,23.19-250.08,51.79-250.08s51.79,112,51.79,250.08-23.19,250.08-51.8,250.08-51.78-112-51.78-250.08" transform="translate(1666.2 -127.19)"/></svg>